<?xml version="1.0" encoding="UTF-8" standalone="no"?>
<!DOCTYPE svg PUBLIC "-//W3C//DTD SVG 1.1//EN" "http://www.w3.org/Graphics/SVG/1.1/DTD/svg11.dtd">
<svg width="100%" height="100%" viewBox="0 0 113 113" version="1.1" xmlns="http://www.w3.org/2000/svg" xmlns:xlink="http://www.w3.org/1999/xlink" xml:space="preserve" xmlns:serif="http://www.serif.com/" style="fill-rule:evenodd;clip-rule:evenodd;stroke-linejoin:round;stroke-miterlimit:1.41421;">
    <g>
        <path d="M89.616,60.611L89.616,83.739L76.207,83.739L76.207,62.161C76.207,56.743 74.271,53.043 69.416,53.043C65.711,53.043 63.51,55.534 62.538,57.946C62.185,58.808 62.094,60.005 62.094,61.214L62.094,83.738L48.684,83.738C48.684,83.738 48.864,47.192 48.684,43.409L62.095,43.409L62.095,49.124C62.068,49.169 62.03,49.213 62.006,49.256L62.095,49.256L62.095,49.124C63.877,46.382 67.055,42.462 74.18,42.462C83.002,42.462 89.616,48.226 89.616,60.611ZM34.656,23.969C30.069,23.969 27.068,26.98 27.068,30.936C27.068,34.808 29.982,37.906 34.48,37.906L34.567,37.906C39.244,37.906 42.152,34.808 42.152,30.936C42.063,26.98 39.244,23.969 34.656,23.969ZM27.865,83.739L41.27,83.739L41.27,43.409L27.865,43.409L27.865,83.739Z" style="fill:white;fill-rule:nonzero;"/>
    </g>
</svg>
